<svg xmlns="http://www.w3.org/2000/svg" viewBox="0 0 512 512" width="512" height="512">
  <rect width="512" height="512" rx="96" fill="#0f172a"/>
  <rect width="512" height="512" rx="96" fill="url(#bg)"/>
  <defs>
    <linearGradient id="bg" x1="0" y1="0" x2="1" y2="1">
      <stop offset="0%" stop-color="#4c1d95"/>
      <stop offset="100%" stop-color="#1e1b4b"/>
    </linearGradient>
  </defs>
  <!-- Wrench icon -->
  <g transform="translate(256,256)" fill="none" stroke="#a78bfa" stroke-width="28" stroke-linecap="round" stroke-linejoin="round">
    <path d="M-60,-120 C-100,-120 -130,-90 -130,-50 C-130,-10 -100,20 -60,20 C-48,20 -38,17 -28,12 L80,120 C90,130 105,130 115,120 C125,110 125,95 115,85 L15,-18 C20,-28 23,-38 23,-50 C23,-90 -7,-120 -47,-120 Z" stroke="#7c3aed" fill="#1e1b4b"/>
    <circle cx="-60" cy="-50" r="28" fill="#7c3aed" stroke="none"/>
    <circle cx="95" cy="100" r="14" fill="#a78bfa" stroke="none"/>
  </g>
  <!-- Lightning bolt overlay -->
  <path d="M290 140 L240 265 L275 265 L225 370 L310 230 L272 230 Z" fill="#fbbf24" opacity="0.9"/>
</svg>
